PathFileType	4	(X/Y/Z)	/Users/itak/Documents/Research/Walk-IL/dataset/trc/00412_00012.trc
DataRate	CameraRate	NumFrames	NumMarkers	Units	OrigDataRate	OrigDataStartFrame	OrigNumFrames
100.000000	100.000000	4	54	mm	100.000000	164	438
Frame#	Time	LPSI			L3			STRN			T10			C7			CLAV			RBAK			LBAK			LSHO			LUPA			LAEL			LAOL			LWTS			LWPS			LFRA			LIFD			LHPS			LHTS			RSHO			RUPA			RAEL			RAOL			RWTS			RWPS			RFRA			RIFD			RHTS			RHPS			RBHD			LFHD			RFHD			LBHD			LHIP			RHIP			RASI			LASI			LKNE			LTHI			LANK			LTIP			LTOE			LMT1			LMT5			LHEE			RKNE			RTHI			RANK			RTIP			RTOE			RMT1			RMT5			RHEE			RPSI			*53			
		X1	Y1	Z1	X2	Y2	Z2	X3	Y3	Z3	X4	Y4	Z4	X5	Y5	Z5	X6	Y6	Z6	X7	Y7	Z7	X8	Y8	Z8	X9	Y9	Z9	X10	Y10	Z10	X11	Y11	Z11	X12	Y12	Z12	X13	Y13	Z13	X14	Y14	Z14	X15	Y15	Z15	X16	Y16	Z16	X17	Y17	Z17	X18	Y18	Z18	X19	Y19	Z19	X20	Y20	Z20	X21	Y21	Z21	X22	Y22	Z22	X23	Y23	Z23	X24	Y24	Z24	X25	Y25	Z25	X26	Y26	Z26	X27	Y27	Z27	X28	Y28	Z28	X29	Y29	Z29	X30	Y30	Z30	X31	Y31	Z31	X32	Y32	Z32	X33	Y33	Z33	X34	Y34	Z34	X35	Y35	Z35	X36	Y36	Z36	X37	Y37	Z37	X38	Y38	Z38	X39	Y39	Z39	X40	Y40	Z40	X41	Y41	Z41	X42	Y42	Z42	X43	Y43	Z43	X44	Y44	Z44	X45	Y45	Z45	X46	Y46	Z46	X47	Y47	Z47	X48	Y48	Z48	X49	Y49	Z49	X50	Y50	Z50	X51	Y51	Z51	X52	Y52	Z52	X53	Y53	Z53	X54	Y54	Z54	

165	1.64	-693.8091430664062	952.3297729492188	540.6988525390625	-697.5191650390625	1040.873413085938	618.1336669921875	-443.6119995117188	1169.086791992188	655.1064453125	-697.935791015625	1146.770629882812	619.1228637695312	-630.2635498046875	1387.742553710938	627.1016235351562	-483.9830017089844	1292.741088867188	649.4869995117188	-695.5206298828125	1248.537231445312	689.5325927734375	-633.918701171875	1351.158813476562	520.7548217773438	-539.1844482421875	1356.8955078125	482.0548095703125	-571.5778198242188	1250.386352539062	403.4297790527344	-590.78515625	1056.214477539062	364.4194030761719	-656.8319702148438	1044.6396484375	415.8698120117188	-556.4205322265625	824.2041015625	406.2688598632812	-594.673828125	825.1847534179688	333.5768432617188	-594.6666870117188	951.0087280273438	348.3053894042969	-595.5187377929688	651.6400756835938	392.5008544921875	-600.2462158203125	738.0264892578125	338.3070678710938	-555.3172607421875	727.3364868164062	382.3966369628906	-588.4288940429688	1359.985229492188	791.984619140625	-610.057373046875	1296.194091796875	850.41552734375	-600.6211547851562	1034.66015625	905.6827392578125	-626.8147583007812	1020.335266113281	813.8326416015625	-418.0620727539062	867.886962890625	856.321044921875	-445.82861328125	843.235107421875	920.07080078125	-558.3391723632812	975.289306640625	916.6808471679688	-366.7781372070312	703.5179443359375	847.6204223632812	-364.3906860351562	773.288818359375	868.0902099609375	-411.8319091796875	760.1366577148438	915.4240112304688	-585.6385498046875	1574.21240234375	708.4452514648438	-449.2098083496094	1561.287963867188	563.813232421875	-454.5257873535156	1580.9521484375	685.1259155273438	-596.4584350585938	1546.267211914062	548.9144897460938	-588.9596557617188	945.0733032226562	442.5950012207031	-642.2116088867188	930.9185180664062	798.2455444335938	-501.747314453125	926.2164916992188	765.47021484375	-484.1705322265625	938.7578735351562	504.7577514648438	-383.9422912597656	484.5279846191406	504.2527465820312	-446.5658874511719	611.1300048828125	477.2205810546875	-326.5412902832031	39.35355377197266	566.3948974609375	-352.5772399902344	250.4869842529297	522.5001220703125	-138.6870880126953	109.0779647827148	643.5077514648438	-211.4653930664062	88.16635131835938	669.3863525390625	-202.1202087402344	64.60190582275391	565.05078125	-366.6986389160156	35.3049201965332	620.6010131835938	-683.37548828125	446.7928161621094	745.6476440429688	-593.6257934570312	695.2221069335938	790.1866455078125	-833.021728515625	54.53644180297852	675.0963134765625	-703.8656005859375	322.1129150390625	718.6080932617188	-651.9993286132812	42.13882064819336	621.087646484375	-725.2329711914062	47.45669937133789	586.2979125976562	-751.5563354492188	43.43396377563477	685.2237548828125	-905.4049072265625	49.9880485534668	617.9170532226562	-706.2496337890625	964.8878173828125	673.4118041992188	nan	nan	nan	
166	1.65	-685.5127563476562	950.07275390625	540.8937377929688	-689.2770385742188	1038.84033203125	618.53173828125	-435.9665222167969	1166.908081054688	656.0646362304688	-690.174560546875	1144.6083984375	619.8809204101562	-622.5523071289062	1385.674560546875	627.8831787109375	-476.3197326660156	1290.572265625	650.4317016601562	-687.8890380859375	1246.3916015625	690.05224609375	-626.061279296875	1349.04833984375	521.5572509765625	-531.3416137695312	1354.773315429688	482.8542175292969	-564.504150390625	1248.349609375	404.3556518554688	-585.3443603515625	1054.25341796875	365.8247985839844	-651.2329711914062	1043.264770507812	417.6390686035156	-552.8172607421875	822.0302734375	408.2878723144531	-590.9641723632812	823.1795654296875	335.5335388183594	-590.0782470703125	949.0152587890625	349.9366760253906	-593.5347900390625	649.8135375976562	395.2695007324219	-597.2808227539062	735.9976806640625	340.6814575195312	-552.6569213867188	725.05517578125	384.8279113769531	-581.052734375	1357.773315429688	792.861083984375	-602.9282836914062	1293.895141601562	851.127197265625	-593.8822631835938	1032.37744140625	906.5018920898438	-619.5379638671875	1017.922241210938	814.4671020507812	-410.0010375976562	867.0717163085938	857.935546875	-437.7789611816406	842.241455078125	921.5886840820312	-551.3421630859375	973.2640991210938	917.6312255859375	-356.8832092285156	703.2528076171875	849.6054077148438	-355.5081481933594	772.9686279296875	870.0321655273438	-403.0025329589844	759.46044921875	917.1393432617188	-577.7958374023438	1572.228515625	709.4274291992188	-441.9723510742188	1559.080932617188	564.1996459960938	-446.7615051269531	1578.94970703125	685.51025390625	-589.2955932617188	1544.0361328125	549.97705078125	-581.2247314453125	942.5824584960938	443.1419982910156	-635.047607421875	929.4736328125	798.81982421875	-494.6096496582031	924.1986694335938	766.5933837890625	-476.1399536132812	936.321044921875	505.8809509277344	-375.6486511230469	482.2795104980469	506.3650207519531	-438.7645874023438	608.5110473632812	478.6990051269531	-308.9416809082031	38.93019104003906	571.7756958007812	-339.7560729980469	249.2859954833984	526.358154296875	-123.3423080444336	113.3498458862305	650.3671264648438	-195.9782257080078	91.15315246582031	675.6546020507812	-184.9583129882812	66.70140838623047	571.6716918945312	-349.5618591308594	34.3818473815918	625.5640258789062	-679.7962036132812	446.0617065429688	746.1558837890625	-588.1204833984375	693.7793579101562	790.9937133789062	-832.8663940429688	54.95298004150391	675.0195922851562	-701.3419799804688	321.4825744628906	719.0863037109375	-651.8421630859375	42.1165657043457	620.9927978515625	-725.14892578125	47.51860427856445	586.3826293945312	-751.431640625	43.40685272216797	685.2647094726562	-905.23828125	51.23283004760742	617.75390625	-698.5692138671875	963.391845703125	673.6362915039062	nan	nan	nan	
167	1.66	-677.027099609375	947.8276977539062	541.0377197265625	-680.8497924804688	1036.841918945312	618.9087524414062	-428.1138305664062	1164.778198242188	657.0221557617188	-682.166748046875	1142.457397460938	620.6165771484375	-614.653076171875	1383.641357421875	628.5999755859375	-468.4649047851562	1288.448120117188	651.3489379882812	-680.057861328125	1244.271362304688	690.5272216796875	-617.983154296875	1346.95654296875	522.2988891601562	-523.2902221679688	1352.659790039062	483.6009521484375	-557.16162109375	1246.294799804688	405.2347106933594	-579.5339965820312	1052.263061523438	367.2227783203125	-645.228515625	1041.820190429688	419.4097900390625	-548.8760986328125	819.8355712890625	410.3282775878906	-586.8896484375	821.1500854492188	337.4975891113281	-585.1156616210938	946.9906005859375	351.5691833496094	-591.1701049804688	648.007080078125	398.1295776367188	-594.0091552734375	733.9384155273438	343.1102905273438	-549.71533203125	722.7294311523438	387.3291931152344	-573.5000610351562	1355.615356445312	793.6737060546875	-595.6264038085938	1291.658935546875	851.7819213867188	-586.9951782226562	1030.131958007812	907.171142578125	-612.04833984375	1015.590270996094	814.9237670898438	-401.9146423339844	866.0665283203125	859.6192016601562	-429.8487548828125	841.0979614257812	923.13916015625	-544.2623291015625	971.2410888671875	918.4823608398438	-347.1795654296875	702.757568359375	851.7540893554688	-346.7721557617188	772.3857421875	872.1348876953125	-394.4244384765625	758.588623046875	918.9425048828125	-569.8394165039062	1570.246948242188	710.387451171875	-434.5885620117188	1556.957153320312	564.583740234375	-438.885498046875	1576.993530273438	685.8900756835938	-581.9959716796875	1541.86669921875	551.0071411132812	-573.1336059570312	940.1747436523438	443.7048645019531	-627.7130737304688	927.9983520507812	799.3223876953125	-487.2953796386719	922.2109985351562	767.72412109375	-467.9024658203125	933.9837036132812	507.0367736816406	-367.0972595214844	480.1692810058594	508.6215515136719	-430.5512084960938	605.946533203125	480.2313232421875	-292.4219970703125	38.54411315917969	576.81591796875	-327.3622131347656	248.1675415039062	530.0676879882812	-108.8610076904297	117.1890182495117	656.5552978515625	-181.3402557373047	93.77355194091797	681.3843383789062	-168.8984069824219	68.64666748046875	577.7046508789062	-333.4090270996094	33.46755981445312	630.2374267578125	-675.9556274414062	445.3506774902344	746.5743408203125	-582.4013061523438	692.3572387695312	791.7493896484375	-832.6889038085938	55.49394226074219	674.8902587890625	-698.6163330078125	320.8860778808594	719.5005493164062	-651.61572265625	42.0183219909668	620.87158203125	-725.0007934570312	47.60590362548828	586.4522705078125	-751.2614135742188	43.41049957275391	685.2677612304688	-904.9921875	52.68141555786133	617.5025634765625	-690.7114868164062	961.8748168945312	673.7932739257812	nan	nan	nan	
168	1.67	-668.3696899414062	945.6320190429688	541.15087890625	-672.2745361328125	1034.89794921875	619.25244140625	-420.0582885742188	1162.718017578125	657.9871215820312	-673.927001953125	1140.358276367188	621.3217163085938	-606.5646362304688	1381.663940429688	629.255126953125	-460.4169616699219	1286.3916015625	652.2403564453125	-672.0301513671875	1242.207641601562	690.9592895507812	-609.6865234375	1344.907470703125	522.982666015625	-515.0339965820312	1350.57373046875	484.2978210449219	-549.5252075195312	1244.234497070312	406.0736999511719	-573.3125610351562	1050.25341796875	368.6126403808594	-638.7935180664062	1040.31298828125	421.1637268066406	-544.5563354492188	817.6283569335938	412.3624572753906	-582.4105224609375	819.1113891601562	339.4423217773438	-579.731201171875	944.95068359375	353.1922302246094	-588.4190063476562	646.2346801757812	401.029541015625	-590.409423828125	731.8729858398438	345.5512390136719	-546.4577026367188	720.3756103515625	389.8644104003906	-565.76513671875	1353.538330078125	794.419921875	-588.1398315429688	1289.518920898438	852.3875122070312	-579.9429931640625	1027.957275390625	907.6953125	-604.3403930664062	1013.375854492188	815.2002563476562	-393.8087463378906	864.8753662109375	861.3602294921875	-422.0414428710938	839.8104248046875	924.71337890625	-537.0986938476562	969.2468872070312	919.2318725585938	-337.7245483398438	702.0112915039062	854.0596923828125	-338.1991577148438	771.54443359375	874.3840942382812	-386.10400390625	757.5230712890625	920.8291015625	-561.7697143554688	1568.2861328125	711.31884765625	-427.0597839355469	1554.940063476562	564.9628295898438	-430.9007568359375	1575.110595703125	686.2623291015625	-574.5584716796875	1539.764038085938	551.9979248046875	-564.6669921875	937.8693237304688	444.2891845703125	-620.2064819335938	926.491455078125	799.7535400390625	-479.7796325683594	920.2731323242188	768.8643798828125	-459.4438171386719	931.7576904296875	508.2215576171875	-358.2789611816406	478.2208557128906	511.0072021484375	-421.9198913574219	603.4696655273438	481.82177734375	-277.1170654296875	38.11819458007812	581.4880981445312	-315.4266967773438	247.0961303710938	533.62158203125	-95.28947448730469	120.3699264526367	662.04248046875	-167.6082916259766	95.86238098144531	686.5540161132812	-154.0366973876953	70.267822265625	583.114990234375	-318.3616333007812	32.52263641357422	634.616943359375	-671.842529296875	444.6622924804688	746.8946533203125	-576.446533203125	690.9577026367188	792.449462890625	-832.4744262695312	56.18094253540039	674.7047729492188	-695.6786499023438	320.3376159667969	719.8447265625	-651.3115234375	41.82574844360352	620.76416015625	-724.7732543945312	47.72379302978516	586.498291015625	-751.0398559570312	43.45153045654297	685.2333984375	-904.6491088867188	54.35274505615234	617.1556396484375	-682.679443359375	960.3211669921875	673.895263671875	nan	nan	nan	
